# xmcd
#
# Track frame offsets:
#	187
#	13237
#	23812
#	39262
#	51637
#	62212
#	73087
#	83587
#	97537
#	109237
#	121237
#	133762
#	145687
#	157087
#	167662
#	180112
#
# Disc length: 2540 seconds
#
# Revision: 2
# Processed by: cddbd v1.5.2PL0 Copyright (c) Steve Scherf et al.
# Submitted via: EasyCDDAExtractor 15.3.0.1
#
DISCID=d009ea10
DTITLE=Various Artist - Early Sixties Soul 1960-1965 Hurt so bad (Ooh Poo Pah
DTITLE=Doo)
DYEAR=1991
DGENRE=Soul
TTITLE0=Ike and Tina Turner - A Fool In Love
TTITLE1=Jessie Hill - Ooh Poo Pah Doo (Part 2)
TTITLE2=Garnet Mimms and The Enchanters - Cry Baby
TTITLE3=Baby Washington - That's How Heartaches Are Made
TTITLE4=Little Anthony and The Imperials - Hurt So Bad
TTITLE5=Barbara George - I Know
TTITLE6=Aaron Neville - Over You
TTITLE7=Ike and Tina Turner - It's Gonna Work Out Fine
TTITLE8=Ernie K-Doe - Mother In Law
TTITLE9=Marv Johnson - I Love The Way You Love
TTITLE10=The O'Jays - Lipstick Traces (On A Cigarette)
TTITLE11=Inez Foxx - Mockingbird
TTITLE12=Jimmy McCracklin - Think
TTITLE13=Irma Thomas - Wish Someone Would Care
TTITLE14=Ernie K-Doe - A Cetain Girl
TTITLE15=Leon Hayward - She's With Her Other Love
EXTD=
EXTT0=
EXTT1=
EXTT2=
EXTT3=
EXTT4=
EXTT5=
EXTT6=
EXTT7=
EXTT8=
EXTT9=
EXTT10=
EXTT11=
EXTT12=
EXTT13=
EXTT14=
EXTT15=
PLAYORDER=
